<?xml version="1.0" standalone="no"?>
<!DOCTYPE svg PUBLIC "-//W3C//DTD SVG 20010904//EN"
 "http://www.w3.org/TR/2001/REC-SVG-20010904/DTD/svg10.dtd">
<svg version="1.0" xmlns="http://www.w3.org/2000/svg"
 width="185.000000pt" height="158.000000pt" viewBox="0 0 185.000000 158.000000"
 preserveAspectRatio="xMidYMid meet">

<g transform="translate(0.000000,158.000000) scale(0.100000,-0.100000)"
fill="#000000" stroke="none">
<path d="M1105 1549 c-5 -14 -12 -18 -23 -14 -39 16 -83 26 -92 20 -6 -3 -10
-19 -10 -35 0 -27 4 -31 45 -41 47 -12 54 -23 33 -52 -12 -15 -17 -16 -63 -1
-71 21 -216 21 -290 0 -185 -54 -325 -193 -379 -376 -24 -78 -22 -219 3 -300
40 -127 125 -240 233 -307 52 -32 56 -37 46 -57 -6 -11 -12 -22 -13 -24 -2 -2
-22 7 -44 20 l-42 23 -19 -25 c-11 -14 -20 -28 -20 -31 0 -3 20 -17 44 -30 38
-20 43 -26 34 -42 -7 -15 -7 -22 3 -28 22 -14 37 -10 44 10 5 18 7 18 66 0 34
-11 71 -19 84 -19 44 0 55 -10 55 -51 0 -35 -3 -39 -24 -39 -16 0 -50 -22 -96
-62 l-71 -63 121 -3 c66 -1 174 -1 239 0 l119 3 -69 60 c-38 33 -81 62 -96 65
-23 4 -28 11 -28 34 -1 39 15 52 74 59 64 8 169 50 248 99 134 85 250 249 287
408 36 151 12 335 -61 473 -47 88 -165 211 -246 257 -48 27 -57 36 -51 52 4
13 1 24 -7 29 -21 13 -27 11 -34 -12z m145 -197 c69 -60 145 -177 173 -266 29
-94 31 -273 3 -356 -67 -199 -217 -345 -414 -403 -109 -33 -213 -32 -343 3
-39 11 -49 29 -31 58 7 10 17 9 53 -4 67 -24 192 -29 271 -10 415 97 570 594
281 898 -31 32 -79 72 -107 90 -28 17 -52 33 -54 34 -1 1 3 13 9 28 l12 26 47
-26 c26 -14 71 -47 100 -72z m-470 49 c0 -5 9 -30 20 -55 21 -50 44 -54 61
-10 11 29 17 29 50 1 23 -18 28 -33 33 -89 l6 -68 -29 0 c-82 0 -124 -13 -162
-51 l-37 -37 -34 24 c-31 23 -33 24 -46 7 -12 -16 -10 -19 12 -27 22 -8 26
-16 26 -47 0 -41 11 -54 56 -63 33 -7 84 -60 138 -143 l28 -42 -32 -40 c-26
-32 -47 -45 -106 -65 -75 -25 -169 -91 -177 -125 -3 -12 -7 -10 -16 10 -12 23
-8 35 39 129 47 94 51 108 48 160 -2 45 1 62 15 78 18 20 18 21 -4 54 -13 18
-40 51 -60 73 -39 44 -86 177 -75 218 7 27 72 69 151 96 66 22 95 26 95 12z
m183 0 c18 -7 18 -8 -1 -31 l-20 -25 -26 24 c-14 14 -26 28 -26 33 0 10 48 9
73 -1z m167 -72 c0 -6 -75 -59 -84 -59 -2 0 -9 14 -16 30 -10 23 -10 37 -2 55
l12 25 45 -22 c25 -12 45 -25 45 -29z m137 -202 c3 -32 1 -37 -18 -37 -22 0
-48 25 -49 46 0 12 39 34 54 30 5 -1 11 -19 13 -39z m73 -74 c18 -63 25 -147
11 -139 -6 4 -18 22 -25 39 -12 28 -14 29 -15 10 -1 -33 -17 -28 -24 7 -7 33
-15 35 -67 15 l-35 -13 28 -11 c15 -6 27 -15 27 -21 0 -5 17 -19 38 -29 20
-11 48 -29 61 -40 24 -18 24 -21 13 -73 -32 -140 -155 -311 -212 -293 -28 9
-26 66 5 153 14 38 25 72 25 76 0 3 -24 17 -54 30 -52 23 -55 26 -62 71 -6 45
-5 48 37 91 24 24 51 46 61 49 9 4 15 12 12 19 -7 17 24 48 38 40 6 -4 17 2
25 12 13 18 62 41 90 43 7 1 17 -16 23 -36z m-601 7 c10 -5 21 -17 25 -25 4
-13 -1 -11 -24 5 -40 29 -40 42 -1 20z"/>
</g>
</svg>
